<svg viewBox="0 0 884 250" fill="none" xmlns="http://www.w3.org/2000/svg">
<path d="M425.5 195.746H371.11L341.242 159.709L326.152 195.746H259.5L316.405 53.7457L371.11 127.534V53.7457H425.5V195.746Z" fill="#121212" stroke="black" stroke-width="8"/>
<path d="M469.299 99.0734H444.5V53.7457H469.299H555L573.5 99.0734H526.026V195.746H469.299V99.0734Z" fill="black" stroke="black" stroke-width="8"/>
<path d="M709.295 180.166C698.907 193.898 684.274 203.028 663.23 203.028C642.168 203.028 627.668 193.876 617.544 180.042C607.302 166.045 601.482 147.145 598.363 127.831C595.251 108.572 594.879 89.2492 595.294 74.6976C595.502 67.4329 595.904 61.3829 596.254 57.158C596.342 56.0913 596.428 55.1413 596.506 54.3179L640.339 54.3182C640.206 56.9001 640.046 60.5525 639.933 64.9224C639.703 73.7592 639.66 85.5828 640.417 97.44C641.169 109.23 642.727 121.343 645.816 130.614C647.359 135.244 649.371 139.438 652.067 142.531C654.827 145.696 658.422 147.817 662.888 147.817C667.366 147.817 671.113 145.683 674.075 142.478C676.958 139.359 679.197 135.14 680.984 130.504C684.562 121.219 686.754 109.097 688.122 97.3081C689.498 85.4496 690.072 73.6249 690.304 64.7883C690.417 60.4935 690.449 56.8917 690.452 54.3182L733.373 54.3177C733.435 55.1967 733.503 56.2303 733.572 57.4057C733.817 61.6315 734.07 67.6824 734.098 74.9475C734.153 89.5011 733.302 108.82 729.716 128.069C726.118 147.383 719.837 166.232 709.295 180.166Z" fill="black" stroke="black" stroke-width="8"/>
<path d="M783.828 114.988C783.828 114.988 792.054 213.924 722.049 213.925C652.044 213.925 662.763 114.988 662.763 114.988L700.44 114.988C700.44 114.988 698.998 170.812 724.183 170.812C749.36 170.812 741.005 124.771 741 124.746L783.828 114.988Z" fill="#165343"/>
<path d="M783.828 114.988C783.828 114.988 792.054 213.924 722.049 213.925C652.044 213.925 662.763 114.988 662.763 114.988L700.44 114.988C700.44 114.988 698.998 170.812 724.183 170.812C749.36 170.812 741.005 124.771 741 124.746L783.828 114.988Z" stroke="black"/>
<path d="M253.5 199.746L315.5 48.2457L428.5 199.746H369L343 167.246L327.666 199.746H253.5Z" fill="#165343"/>
<path d="M529 199.746H465L466.684 50.7457H529V199.746Z" fill="#165343"/>
<path d="M717.5 130.246C717.5 130.246 722.035 43.0594 779.035 43.0592C836.035 43.0592 855.5 86.9797 855.5 86.9797L806 118.476C806 118.476 808 86.9795 784.5 86.9794C761.037 86.9794 768.476 118.375 768.5 118.475L717.5 130.246Z" fill="#165343"/>
<path d="M717.5 130.246C717.5 130.246 722.035 43.0594 779.035 43.0592C836.035 43.0592 855.5 86.9797 855.5 86.9797L806 118.476C806 118.476 808 86.9795 784.5 86.9794C761.037 86.9794 768.476 118.375 768.5 118.475L717.5 130.246Z" stroke="black"/>
<path d="M97.0142 160.245L91.1805 148.647C91.1805 148.647 81.4143 151.88 79.125 159.624C77.4175 165.401 82.7093 174.694 82.7093 174.694C82.7093 174.694 92.831 180.478 99.3331 177.802C105.835 175.126 110.65 168.632 110.65 168.632L97.0142 160.245Z" fill="#F9F9F9"/>
<path d="M166.999 47.0294C183.466 42.9979 206.855 58.2349 206.855 58.2349L205.429 51.1084L217.092 48.4983L213.456 59.5475L206.855 58.2349C206.855 58.2349 218.516 80.8012 214.5 96.1054C210.483 111.41 171.596 145.451 166.609 161.96C161.622 178.469 182.892 199.084 173.306 207.052C163.72 215.021 103.875 176.198 103.875 176.198L92.1419 165.889L80.9767 152.124C80.9767 152.124 38.7032 100.053 49.3551 90.5923C60.0071 81.1314 83.6223 100.313 97.6161 94.7398C111.61 89.1664 150.532 51.0609 166.999 47.0294Z" fill="#175D32" fill-opacity="0.69"/>
<path d="M206.855 58.2349C206.855 58.2349 183.466 42.9979 166.999 47.0294C150.532 51.0609 111.61 89.1664 97.6161 94.7398C83.6223 100.313 60.0071 81.1314 49.3551 90.5923C38.7032 100.053 80.9767 152.124 80.9767 152.124L92.1419 165.889L103.875 176.198C103.875 176.198 163.72 215.021 173.306 207.052C182.892 199.084 161.622 178.469 166.609 161.96C171.596 145.451 210.483 111.41 214.5 96.1054C218.516 80.8012 206.855 58.2349 206.855 58.2349ZM206.855 58.2349L213.456 59.5475L217.092 48.4983L205.429 51.1084L206.855 58.2349Z" stroke="#4E8173"/>
<path d="M214.431 78.8948C209.005 96.9059 132.605 57.1636 121.016 79.7103C109.426 102.257 187.713 126.321 182.224 140.298C176.734 154.275 121.048 167.589 66.2889 131.143" stroke="#165343" stroke-width="3"/>
<path d="M139.162 63.3013C138.922 61.9378 136.746 63.3538 135.972 64.4141C135.198 65.4744 132.822 69.2536 130.799 72.6846C130.799 72.6846 137.206 67.8836 137.98 66.8234C138.754 65.7631 139.402 64.6649 139.162 63.3013Z" fill="#165343" stroke="#165343" stroke-width="3"/>
<path d="M123.509 62.7359C124.478 61.4354 125.836 63.4037 126.02 64.6597C126.203 65.9158 126.483 70.2952 126.606 74.2365C126.606 74.2365 122.946 67.81 122.762 66.5541C122.579 65.2981 122.54 64.0365 123.509 62.7359Z" fill="#165343" stroke="#165343" stroke-width="3"/>
<path d="M224.839 76.5562C226.687 76.8563 224.142 78.3396 222.457 78.8172C220.773 79.2947 211.094 82.271 205.768 83.4592C205.768 83.4592 217.918 77.5916 219.602 77.1141C221.287 76.6365 222.992 76.2562 224.839 76.5562Z" fill="#165343" stroke="#165343" stroke-width="3"/>
<path d="M226.116 86.4393C227.593 87.6011 224.669 87.6734 222.97 87.2764C221.271 86.8794 211.399 84.8038 206.177 83.2648C206.177 83.2648 219.568 83.9909 221.268 84.3879C222.967 84.7849 224.638 85.2775 226.116 86.4393Z" fill="#165343" stroke="#165343" stroke-width="3"/>
<path d="M135.985 96.1162C134.779 95.1557 134.839 97.3667 135.305 98.5943C135.771 99.8219 137.467 103.075 139.212 106.806C139.212 106.806 138.682 100.726 138.216 99.4984C137.751 98.2709 137.192 97.0767 135.985 96.1162Z" fill="#165343" stroke="#165343" stroke-width="3"/>
<path d="M126.944 89.9011C128.421 89.5449 130.662 88.1775 129.051 87.6714C127.441 87.1653 125.947 87.4136 124.469 87.7698C123.625 87.9733 122.319 88.1498 121.354 88.2636C120.97 88.2804 120.554 88.3237 120.099 88.3992C120.099 88.3992 120.631 88.349 121.354 88.2636C124.91 88.1077 125.61 90.2225 126.944 89.9011Z" fill="#165343"/>
<path d="M126.944 89.9011C128.421 89.5449 130.662 88.1775 129.051 87.6714C127.441 87.1653 125.947 87.4136 124.469 87.7698C122.992 88.1259 120.099 88.3992 120.099 88.3992C124.767 87.6233 125.466 90.2572 126.944 89.9011Z" stroke="#165343" stroke-width="3"/>
<path d="M116.41 88.1854C115.771 87.3671 115.315 85.4894 116.569 85.6931C117.822 85.8968 118.538 86.6383 119.178 87.4565C119.543 87.9242 120.195 88.5413 120.686 88.9843C120.899 89.1385 121.115 89.3252 121.333 89.5507C121.333 89.5507 121.055 89.3164 120.686 88.9843C118.711 87.5541 116.987 88.9241 116.41 88.1854Z" fill="#165343"/>
<path d="M116.41 88.1854C115.771 87.3671 115.315 85.4894 116.569 85.6931C117.822 85.8968 118.538 86.6383 119.178 87.4565C119.817 88.2748 121.333 89.5507 121.333 89.5507C119.095 87.2342 117.05 89.0037 116.41 88.1854Z" stroke="#165343" stroke-width="3"/>
<path d="M128.94 83.749C130.649 82.9078 132.866 80.0399 130.599 79.2356C128.332 78.4313 126.554 79.0668 124.845 79.9079C123.869 80.3886 122.295 80.866 121.126 81.1869C120.649 81.2597 120.141 81.3868 119.6 81.58C119.6 81.58 120.25 81.4274 121.126 81.1869C125.556 80.5117 127.398 84.5083 128.94 83.749Z" fill="#165343"/>
<path d="M128.94 83.749C130.649 82.9078 132.866 80.0399 130.599 79.2356C128.332 78.4313 126.554 79.0668 124.845 79.9079C123.137 80.7491 119.6 81.58 119.6 81.58C125.156 79.5947 127.232 84.5901 128.94 83.749Z" stroke="#165343" stroke-width="3"/>
<path d="M144.742 97.7142C143.784 96.3526 143.717 98.8496 144.041 100.337C144.364 101.825 145.686 106.957 146.946 111.555C146.946 111.555 146.75 103.523 146.426 102.035C146.102 100.548 145.699 99.0757 144.742 97.7142Z" fill="#165343" stroke="#165343" stroke-width="3"/>
<path d="M131.41 93.8691C131.817 94.5108 131.206 95.3678 130.814 95.4721C130.423 95.5764 129.058 95.708 127.83 95.7424C127.83 95.7424 129.828 93.4468 130.219 93.3426C130.61 93.2383 131.004 93.2273 131.41 93.8691Z" fill="#165343" stroke="#165343" stroke-width="3"/>
<path d="M117.385 93.6037C116.762 94.2744 117.798 95.0851 118.436 95.1605C119.075 95.236 121.29 95.2672 123.279 95.2114C123.279 95.2114 119.922 93.066 119.283 92.9906C118.645 92.9152 118.008 92.933 117.385 93.6037Z" fill="#165343" stroke="#165343" stroke-width="3"/>
<path d="M159.932 111.784C159.205 111.138 158.092 112.666 158.235 113.434C158.378 114.203 160.312 117.752 160.986 120.106C160.986 120.106 161.618 115.821 161.475 115.052C161.332 114.283 160.66 112.431 159.932 111.784Z" fill="#165343" stroke="#165343" stroke-width="3"/>
<path d="M188.404 129.269C189.37 129.538 188.445 131.155 187.643 131.41C186.841 131.665 182.526 131.83 179.957 132.423C179.957 132.423 183.744 129.865 184.546 129.61C185.348 129.355 187.439 129.001 188.404 129.269Z" fill="#165343" stroke="#165343" stroke-width="3"/>
<path d="M174.096 135.716C174.303 134.649 176.308 135.484 176.698 136.323C177.088 137.163 177.768 141.797 178.754 144.509C178.754 144.509 175.322 140.681 174.932 139.841C174.541 139.002 173.89 136.784 174.096 135.716Z" fill="#165343" stroke="#165343" stroke-width="3"/>
<path d="M167.099 140.93C166.707 139.921 168.844 139.52 169.619 140.009C170.394 140.498 173.426 144.01 175.698 145.741C175.698 145.741 170.767 144.418 169.992 143.929C169.217 143.44 167.49 141.938 167.099 140.93Z" fill="#165343" stroke="#165343" stroke-width="3"/>
<path d="M157.268 145.301C156.222 144.468 158.553 144.134 159.761 144.537C160.969 144.941 166.609 147.841 170.32 149.269C170.32 149.269 163.658 148.181 162.45 147.778C161.242 147.374 158.314 146.135 157.268 145.301Z" fill="#165343" stroke="#165343" stroke-width="3"/>
<path d="M143.96 144.417C142.814 143.222 145.744 143.059 147.163 143.719C148.583 144.378 156.392 149.954 160.72 152.224C160.72 152.224 151.338 148.867 149.919 148.208C148.5 147.549 145.106 145.613 143.96 144.417Z" fill="#165343" stroke="#165343" stroke-width="3"/>
<path d="M92.144 129.592C91.6279 127.48 95.183 129.026 96.3926 130.659C97.6022 132.292 110.992 146.137 114.5 151.426C114.5 151.426 98.6809 138.932 95.5336 136.714C92.3863 134.496 92.6601 131.704 92.144 129.592Z" fill="#165343" stroke="#165343" stroke-width="3"/>
<path d="M52.1881 118.068C52.0214 115.714 56.5756 116.57 57.8351 118.169C59.0946 119.768 74.1456 132.464 77.6536 137.754C77.6536 137.754 58.8604 127.314 55.0511 125.553C51.2418 123.792 52.3548 120.422 52.1881 118.068Z" fill="#165343" stroke="#165343" stroke-width="3"/>
<path d="M81.4115 131.746C81.0872 130.454 83.2677 131.392 84.0141 132.389C84.7606 133.385 94.9565 143.635 97.1236 146.865C97.1236 146.865 85.4476 137.448 83.5137 136.097C81.5798 134.747 81.7358 133.038 81.4115 131.746Z" fill="#165343" stroke="#165343" stroke-width="3"/>
<path d="M129.476 141.116C131.557 138.788 136.228 145.944 138.963 148.083C141.699 150.221 147.951 152.877 151.374 153.869C151.374 153.869 141.158 151.469 136.758 149.049C132.357 146.629 127.395 143.444 129.476 141.116Z" fill="#165343" stroke="#165343" stroke-width="3"/>
<path d="M110.887 136.055C112.973 133.841 116.672 140.774 121.766 145.005C126.861 149.235 132.786 153.654 136.748 154.548C136.748 154.548 124.18 151.95 119.03 148.1C113.88 144.249 108.801 138.27 110.887 136.055Z" fill="#165343" stroke="#165343" stroke-width="3"/>
<path d="M148.314 160.373C147.54 161.482 149.865 161.111 150.912 160.365C151.959 159.62 156.569 155.166 159.733 152.695C159.733 152.695 153.647 155.716 152.6 156.461C151.553 157.207 149.088 159.264 148.314 160.373Z" fill="#165343" stroke="#165343" stroke-width="3"/>
<path d="M134.859 165.01C134.09 166.496 136.942 165.782 138.121 164.729C139.3 163.675 145.254 156.013 148.778 152.553C148.778 152.553 140.708 158.555 139.529 159.608C138.35 160.662 135.629 163.525 134.859 165.01Z" fill="#165343" stroke="#165343" stroke-width="3"/>
<path d="M47.7722 130.566C45.736 131.254 48.926 133.472 50.934 133.635C52.942 133.797 71.6415 137.86 77.9258 138.035C77.9258 138.035 59.0518 131.169 55.5198 129.66C51.9878 128.15 49.8083 129.878 47.7722 130.566Z" fill="#165343" stroke="#165343" stroke-width="3"/>
<path d="M72.9741 144.914C71.8458 145.602 74.0485 146.485 75.2722 146.307C76.4959 146.128 90.8708 146.084 94.6565 145.327C94.6565 145.327 79.8071 143.726 77.4931 143.312C75.1792 142.898 74.1024 144.225 72.9741 144.914Z" fill="#165343" stroke="#165343" stroke-width="3"/>
<path d="M109.368 162.17C110.913 164.876 116.989 158.837 120.116 157.309C123.243 155.781 129.918 154.47 133.474 154.204C133.474 154.204 122.976 154.448 118.162 155.909C113.348 157.371 107.824 159.464 109.368 162.17Z" fill="#165343" stroke="#165343" stroke-width="3"/>
<path d="M97.7999 154.835C91.4406 156.655 85.2773 161.513 84.2537 158.644C83.2301 155.775 90.2757 152.347 96.5335 150.897C102.42 149.533 113.63 151.528 114.938 151.77C114.98 151.777 115.022 151.785 115.064 151.793C115.064 151.793 115.02 151.785 114.938 151.77C110.977 151.064 104.241 152.991 98.0047 154.776L97.7999 154.835Z" fill="#165343"/>
<path d="M97.7999 154.835C91.4406 156.655 85.2773 161.513 84.2537 158.644C83.2301 155.775 90.2757 152.347 96.5335 150.897C102.791 149.447 115.064 151.793 115.064 151.793C111.077 151.014 104.159 153.015 97.7999 154.835Z" stroke="#165343" stroke-width="3"/>
<path d="M168.558 115.078C168.159 114.499 166.999 115.77 166.841 116.254C166.684 116.738 166.509 118.861 166.234 120.41C166.234 120.41 168.97 117.898 169.127 117.415C169.285 116.931 168.958 115.657 168.558 115.078Z" fill="#165343" stroke="#165343" stroke-width="3"/>
<path d="M183.82 123.859C184.074 123.031 181.696 123.671 181.044 124.079C180.392 124.488 176.29 127.277 174.41 128.716C174.41 128.716 181.209 127.01 181.861 126.601C182.513 126.193 183.566 124.688 183.82 123.859Z" fill="#165343" stroke="#165343" stroke-width="3"/>
<path d="M116.211 72.9175C116.672 72.1108 117.894 72.4837 118.21 72.927C118.525 73.3702 119.381 75.0234 120.064 76.5501C120.064 76.5501 116.599 75.0994 116.283 74.6562C115.968 74.213 115.749 73.7242 116.211 72.9175Z" fill="#165343" stroke="#165343" stroke-width="3"/>
<path d="M181.862 74.5827C183.148 73.9633 185.022 71.7453 183.236 71.9572C181.451 72.1691 180.103 72.7376 178.817 73.357C177.783 73.8552 171.111 76.374 168.538 77.3411C168.179 77.4619 167.841 77.588 167.528 77.7199C167.528 77.7199 167.912 77.5765 168.538 77.3411C173.011 75.8344 180.672 75.1562 181.862 74.5827Z" fill="#165343"/>
<path d="M181.862 74.5827C183.148 73.9633 185.022 71.7453 183.236 71.9572C181.451 72.1691 180.103 72.7376 178.817 73.357C177.531 73.9764 167.528 77.7199 167.528 77.7199C171.74 75.9438 180.576 75.2022 181.862 74.5827Z" stroke="#165343" stroke-width="3"/>
<path d="M170.689 70.0312C171.875 71.2 170.974 71.4042 169.862 71.9478C168.75 72.4915 162.337 74.0402 158.674 75.585C158.674 75.585 165.907 71.267 167.019 70.7234C168.131 70.1797 169.503 68.8625 170.689 70.0312Z" fill="#165343" stroke="#165343" stroke-width="3"/>
<path d="M198.584 74.6298C201.203 74.5853 197.715 75.7099 195.373 76.1716C193.032 76.6334 184.808 78.1091 177.384 79.3887C177.384 79.3887 188.905 76.0074 191.246 75.5457C193.588 75.0839 195.964 74.6744 198.584 74.6298Z" fill="#165343" stroke="#165343" stroke-width="3"/>
<path d="M202.94 78.5208C204.416 78.5787 199.995 79.907 198.717 80.1566C197.439 80.4062 193.266 81.0405 189.195 81.7002C189.195 81.7002 195.831 79.1753 197.109 78.9257C198.388 78.6761 201.464 78.463 202.94 78.5208Z" fill="#165343" stroke="#165343" stroke-width="3"/>
<path d="M162.605 68.7679C164.035 68.663 160.19 70.495 159.039 70.8888C157.888 71.2826 154.078 72.3857 150.373 73.5032C150.373 73.5032 155.99 70.2164 157.141 69.8226C158.292 69.4288 161.175 68.8728 162.605 68.7679Z" fill="#165343" stroke="#165343" stroke-width="3"/>
<path d="M152.622 105.192C151.936 104.36 152.246 107.943 152.492 108.881C152.738 109.82 153.749 112.752 154.689 115.642C154.689 115.642 154.84 109.878 154.595 108.94C154.349 108.001 153.308 106.024 152.622 105.192Z" fill="#165343" stroke="#165343" stroke-width="3"/>
<path d="M189.912 134.58C191.204 134.51 188.394 137.89 187.487 138.583C186.579 139.277 183.489 141.159 180.503 143.082C180.503 143.082 184.346 136.888 185.253 136.195C186.161 135.501 188.619 134.651 189.912 134.58Z" fill="#165343" stroke="#165343" stroke-width="3"/>
<path d="M176.327 116.476C177.222 115.873 175.901 119.219 175.397 120.049C174.893 120.879 173.085 123.402 171.358 125.906C171.358 125.906 172.861 120.338 173.365 119.508C173.869 118.678 175.432 117.079 176.327 116.476Z" fill="#165343" stroke="#165343" stroke-width="3"/>
<path d="M128.404 103.189C127.492 101.936 129.661 102.054 130.855 102.56C132.048 103.066 135.198 104.877 138.816 106.75C138.816 106.75 132.86 106.053 131.667 105.547C130.474 105.041 129.316 104.442 128.404 103.189Z" fill="#165343" stroke="#165343" stroke-width="3"/>
<path d="M133.99 110.941C132.788 109.809 136.001 109.856 138.277 109.672C140.553 109.487 142.889 110.254 147.173 111.827C147.173 111.827 142.3 110.178 139.564 110.987C136.828 111.796 135.192 112.074 133.99 110.941Z" fill="#165343" stroke="#165343" stroke-width="3"/>
<path d="M154.107 121.403C153.487 121.127 154.112 119.956 154.636 119.82C155.159 119.683 157.955 119.874 159.629 119.608C159.629 119.608 157.135 121.289 156.611 121.426C156.087 121.562 154.728 121.68 154.107 121.403Z" fill="#165343" stroke="#165343" stroke-width="3"/>
<path d="M162.034 126.35C161.568 126.121 161.689 124.986 161.861 124.782C162.033 124.578 163.017 124.098 163.669 123.629C163.669 123.629 163.625 126.229 163.453 126.433C163.281 126.637 162.5 126.578 162.034 126.35Z" fill="#165343" stroke="#165343" stroke-width="3"/>
<path d="M145.461 114.906C144.717 115.213 147.591 115.849 148.364 115.894C149.137 115.938 151.583 115.896 153.987 115.898C153.987 115.898 149.445 114.393 148.672 114.348C147.899 114.304 146.205 114.599 145.461 114.906Z" fill="#165343" stroke="#165343" stroke-width="3"/>
<path d="M168.792 130.677C169.142 131.058 170.093 130.187 170.189 129.911C170.285 129.635 170.358 128.701 170.484 127.798C170.484 127.798 168.349 129.011 168.253 129.287C168.157 129.563 168.442 130.297 168.792 130.677Z" fill="#165343" stroke="#165343" stroke-width="3"/>
<path d="M151.323 67.4316C152.756 67.5825 149.999 69.6151 149.064 69.9804C148.129 70.3457 144.893 71.2393 141.778 72.1789C141.778 72.1789 145.375 68.2489 146.31 67.8836C147.244 67.5184 149.89 67.2807 151.323 67.4316Z" fill="#165343" stroke="#165343" stroke-width="3"/>
<path d="M210.068 77.8072C211.175 77.4328 208.472 79.6565 207.636 80.2008C206.799 80.7451 203.995 82.3893 201.276 84.0235C201.276 84.0235 205.116 80.2954 205.953 79.7512C206.789 79.2069 208.961 78.1815 210.068 77.8072Z" fill="#165343" stroke="#165343" stroke-width="3"/>
<path d="M179.267 86.4709C180.147 87.5986 180.849 90.4215 179.342 89.4366C177.835 88.4518 176.876 87.3419 175.997 86.2143C175.29 85.3074 170.418 80.0789 168.537 78.0666C168.269 77.7986 168.021 77.5349 167.799 77.2775C167.799 77.2775 168.08 77.5767 168.537 78.0666C171.883 81.4084 178.453 85.427 179.267 86.4709Z" fill="#165343"/>
<path d="M179.267 86.4709C180.147 87.5986 180.849 90.4215 179.342 89.4366C177.835 88.4518 176.876 87.3419 175.997 86.2143C175.117 85.0867 167.799 77.2775 167.799 77.2775C170.792 80.7447 178.387 85.3433 179.267 86.4709Z" stroke="#165343" stroke-width="3"/>
<path d="M167.244 85.5776C168.822 85.0578 168.105 84.4738 167.347 83.4912C166.59 82.5086 161.523 78.2655 158.919 75.2496C158.919 75.2496 163.501 82.3409 164.259 83.3234C165.016 84.306 165.665 86.0975 167.244 85.5776Z" fill="#165343" stroke="#165343" stroke-width="3"/>
<path d="M195.145 93.5605C197.474 94.7667 194.842 92.2054 192.946 90.7491C191.05 89.2928 184.327 84.3085 178.236 79.8565C178.236 79.8565 187.075 88.0169 188.97 89.4731C190.866 90.9294 192.816 92.3544 195.145 93.5605Z" fill="#165343" stroke="#165343" stroke-width="3"/>
<path d="M200.971 91.3268C202.32 91.9319 198.942 88.7732 197.906 87.9803C196.87 87.1875 193.408 84.7613 190.05 82.3577C190.05 82.3577 194.886 87.5755 195.922 88.3683C196.958 89.1611 199.622 90.7216 200.971 91.3268Z" fill="#165343" stroke="#165343" stroke-width="3"/>
<path d="M159.522 82.4541C160.758 83.1847 158.118 79.8306 157.259 78.9651C156.401 78.0996 153.471 75.4145 150.642 72.7633C150.642 72.7633 154.23 78.2106 155.088 79.076C155.946 79.9415 158.286 81.7235 159.522 82.4541Z" fill="#165343" stroke="#165343" stroke-width="3"/>
<path d="M139.527 79.8366C140.879 80.233 138.738 77.3949 137.948 76.722C137.158 76.0491 134.351 74.0512 131.664 72.057C131.664 72.057 134.204 76.9013 134.994 77.5742C135.783 78.247 138.176 79.4402 139.527 79.8366Z" fill="#165343" stroke="#165343" stroke-width="3"/>
<path d="M149.26 80.9153C150.611 81.418 149.035 78.368 148.358 77.6244C147.68 76.8808 145.173 74.639 142.794 72.4099C142.794 72.4099 144.287 77.5345 144.964 78.2781C145.641 79.0217 147.909 80.4127 149.26 80.9153Z" fill="#165343" stroke="#165343" stroke-width="3"/>
<path d="M210.838 87.5549C212 87.6183 208.838 86.1982 207.895 85.8978C206.952 85.5973 203.835 84.7644 200.803 83.9183C200.803 83.9183 205.437 86.4851 206.38 86.7856C207.323 87.086 209.676 87.4915 210.838 87.5549Z" fill="#165343" stroke="#165343" stroke-width="3"/>
</svg>
